<?xml version="1.0" encoding="UTF-8" standalone="no"?>
<svg width="592px" height="89px" viewBox="0 0 592 89" version="1.1" xmlns="http://www.w3.org/2000/svg" xmlns:xlink="http://www.w3.org/1999/xlink">
    <!-- Generator: Sketch 45.2 (43514) - http://www.bohemiancoding.com/sketch -->
    <title>Page 1</title>
    <desc>Created with Sketch.</desc>
    <defs>
        <polygon id="path-1" points="30.29 0.7144 30.29 42.6934 0.4364 42.6934 0.4364 0.7144 30.29 0.7144"></polygon>
        <polygon id="path-3" points="0.8774 62 43.1504 62 43.1504 0.7504 0.8774 0.7504"></polygon>
    </defs>
    <g id="Page-1" stroke="none" stroke-width="1" fill="none" fill-rule="evenodd">
        <g>
            <path d="M52.6254,35.3027 C52.5494,41.8927 52.3874,65.1247 52.7004,67.4567 C53.9084,68.4097 59.7124,68.2777 60.9814,67.4567 C61.3744,64.4507 61.4384,48.9097 61.4584,41.0077 C63.3504,37.9607 68.6454,35.0727 72.9744,35.0727 C75.3124,35.0727 77.6674,36.4887 77.6674,40.7477 C77.6674,42.9687 77.2714,62.4567 77.4524,64.2417 C77.7104,66.7927 79.3824,68.1227 84.2704,68.1227 C88.5514,68.1227 91.3424,66.6577 91.3424,64.2417 L91.3394,61.0137 L85.8354,61.0137 C86.1794,54.7187 86.5814,41.3337 85.9484,37.4437 C84.9564,31.3617 81.0454,27.4077 75.0064,27.4077 C69.6594,27.4077 63.0294,30.1347 60.9394,33.6937 C60.8154,33.7287 60.6974,33.6917 60.6974,33.6917 C60.8734,33.2207 60.9344,32.5707 60.9344,31.8167 C60.9344,29.2537 59.2644,27.9377 54.3764,27.9377 C50.0954,27.9377 47.3034,29.9197 47.3034,32.3337 L47.3064,35.3027 L52.6254,35.3027 Z" id="Fill-1" fill="#3A7D9B"></path>
            <path d="M45.3822,61.0781 L40.0602,61.0781 C40.1392,54.4881 40.3002,31.2561 39.9872,28.9241 C38.7792,27.9711 32.9742,28.1031 31.7062,28.9241 C31.3132,31.9301 31.2482,47.4711 31.2292,55.3731 C29.3362,58.4201 24.0412,60.5331 19.7142,60.5331 C17.3752,60.5331 14.9742,59.0681 15.0202,55.6331 C15.0492,53.4141 15.4162,33.9241 15.2352,32.1371 C14.9782,29.5881 13.3042,28.2581 8.4182,28.2581 C4.1372,28.2581 1.3452,29.7231 1.3462,32.1371 L1.3482,35.3671 L6.8512,35.3671 C6.5082,41.6621 6.1062,55.0471 6.7402,58.9371 C7.7312,65.0191 11.6412,68.9731 17.6812,68.9731 C23.0282,68.9731 29.6582,66.2441 31.7482,62.6871 C31.8722,62.6521 31.9902,62.6911 31.9902,62.6911 C31.8152,63.1601 31.7532,63.8101 31.7532,64.5641 C31.7542,67.1251 33.4242,68.4451 38.3112,68.4451 C42.5922,68.4451 45.3842,66.4611 45.3842,64.0471 L45.3822,61.0781 Z" id="Fill-3" fill="#3A7D9B"></path>
            <path d="M11.7045,18.7656 C10.5245,16.2836 6.4155,10.6486 5.0685,9.3026 C3.2515,7.4846 1.9695,8.0936 0.9305,9.1326 C-0.1105,10.1736 -0.5575,11.6176 1.0975,13.2736 C2.4455,14.6206 7.9945,18.6606 10.4955,19.8766 C11.2025,20.2206 12.0245,19.4376 11.7045,18.7656" id="Fill-5" fill="#85B77E"></path>
            <path d="M33.6283,19.8769 C36.1283,18.6599 41.6783,14.6209 43.0253,13.2729 C44.6813,11.6169 44.2333,10.1739 43.1943,9.1329 C42.1543,8.0939 40.8733,7.4839 39.0543,9.3029 C37.7083,10.6479 33.5983,16.2829 32.4193,18.7659 C32.0993,19.4379 32.9203,20.2209 33.6283,19.8769" id="Fill-7" fill="#85B77E"></path>
            <path d="M22.8705,19.6054 C23.7915,17.0174 24.8695,4.9494 24.8695,3.0464 C24.8695,0.4764 23.5325,0.0004 22.0615,0.0004 C20.5915,0.0004 19.2545,0.7054 19.2545,3.0464 C19.2545,4.9534 20.3215,16.9084 21.2295,19.5374 C21.4855,20.2814 22.6205,20.3064 22.8705,19.6054" id="Fill-9" fill="#85B77E"></path>
            <path d="M149.8739,61.3925 C144.6969,61.3925 139.8319,59.7885 139.8319,47.8785 C139.8319,36.5055 144.6969,34.1095 149.8739,34.1095 C155.0509,34.1095 159.9159,35.9085 159.9159,47.8785 C159.9159,60.0585 155.0509,61.3925 149.8739,61.3925 M168.7479,47.8785 C168.7479,30.1565 159.5679,27.4085 149.8739,27.4085 C140.1799,27.4085 131.0009,31.5745 131.0009,47.8785 C131.0009,64.1835 140.1799,68.3495 149.8739,68.3495 C159.5679,68.3495 168.7479,65.6035 168.7479,47.8785" id="Fill-11" fill="#3A7D9B"></path>
            <path d="M311.8148,62.1679 C306.6378,62.1679 300.4798,59.7889 300.4798,47.8789 C300.4798,36.5059 306.6378,33.3319 311.8148,33.3319 C316.9928,33.3319 323.1498,35.9079 323.1498,47.8789 C323.1498,60.0589 316.9928,62.1679 311.8148,62.1679 M331.9808,47.8789 C331.9808,30.1559 321.5088,26.6309 311.8148,26.6309 C302.1208,26.6309 291.6488,31.5739 291.6488,47.8789 C291.6488,64.1839 302.1208,69.1269 311.8148,69.1269 C321.5088,69.1269 331.9808,65.6039 331.9808,47.8789" id="Fill-13" fill="#3A7D9B"></path>
            <path d="M339.5228,35.3027 C339.4468,41.8927 339.2848,65.1247 339.5968,67.4567 C340.8058,68.4097 346.6108,68.2777 347.8778,67.4567 C348.2718,64.4507 348.3358,48.9097 348.3558,41.0077 C350.2478,37.9607 355.5428,35.0727 359.8698,35.0727 C362.2098,35.0727 364.5638,36.4887 364.5638,40.7477 C364.5638,42.9687 364.1678,62.4567 364.3488,64.2417 C364.6078,66.7927 366.2798,68.1227 371.1648,68.1227 C375.4488,68.1227 378.2398,66.6577 378.2378,64.2417 L378.2378,61.0137 L372.7328,61.0137 C373.0778,54.7187 373.4788,41.3337 372.8458,37.4437 C371.8538,31.3617 367.9428,27.4077 361.9038,27.4077 C356.5558,27.4077 349.9248,30.1347 347.8368,33.6937 C347.7108,33.7287 347.5948,33.6917 347.5948,33.6917 C347.7708,33.2207 347.8308,32.5707 347.8308,31.8167 C347.8298,29.2537 346.1588,27.9377 341.2728,27.9377 C336.9928,27.9377 334.1998,29.9197 334.2008,32.3337 L334.2008,35.3027 L339.5228,35.3027 Z" id="Fill-15" fill="#3A7D9B"></path>
            <path d="M288.2025,61.0136 L282.6985,61.0136 C283.0395,54.7186 283.4435,41.3336 282.8095,37.4436 C281.8185,31.3616 277.9085,27.4086 271.8685,27.4086 C266.5215,27.4086 259.8895,30.1346 257.8015,33.6936 C257.7215,33.7166 257.4235,33.7086 257.2225,33.6996 L257.2285,33.7326 C255.4805,29.8046 252.0705,27.4086 247.3695,27.4086 C242.0225,27.4086 235.3905,30.1346 233.3005,33.6936 C233.2205,33.7166 232.9215,33.7086 232.7235,33.6996 L232.7385,33.7776 C230.9955,29.8226 227.5775,27.4086 222.8575,27.4086 C217.5105,27.4086 210.8785,30.1346 208.7905,33.6936 C208.7105,33.7166 208.4125,33.7086 208.2115,33.6996 C206.4595,29.7906 203.0555,27.4086 198.3665,27.4086 C193.0195,27.4086 186.6465,30.1346 184.5585,33.6936 C184.4355,33.7286 184.3175,33.6916 184.3175,33.6916 C184.4935,33.2206 184.5525,32.5706 184.5525,31.8166 C184.5525,29.2536 182.8815,27.9376 177.9955,27.9376 C173.7145,27.9376 170.9235,29.9196 170.9235,32.3336 L170.9235,35.3026 L176.2445,35.3026 C176.1685,41.8926 176.0075,65.1246 176.3195,67.4566 C177.5285,68.4096 183.3325,68.2776 184.6005,67.4566 C184.9935,64.4516 185.0575,48.9096 185.0785,41.0076 C186.9695,37.9606 192.0065,35.0726 196.3325,35.0726 C198.6735,35.0726 201.0275,36.4886 201.0275,40.7476 C201.0275,42.9686 200.6325,62.4566 200.8125,64.2426 C201.0705,66.7926 202.7435,68.1226 207.6305,68.1226 C211.9115,68.1226 214.7025,66.6586 214.7015,64.2426 L214.7015,61.0136 L209.1965,61.0136 C209.4735,55.9296 209.7885,46.2246 209.5675,40.6266 C211.6445,37.7246 216.6775,35.0726 220.8235,35.0726 C223.1635,35.0726 225.5185,36.4886 225.5185,40.7476 C225.5185,42.9686 225.1215,62.4566 225.3035,64.2426 C225.5615,66.7926 227.2335,68.1226 232.1195,68.1226 C236.4005,68.1226 239.1915,66.6586 239.1915,64.2426 L239.1915,61.0136 L233.6875,61.0136 C233.9665,55.8906 234.2835,46.0706 234.0525,40.4936 L234.0765,40.6266 C236.1555,37.7246 241.1885,35.0726 245.3355,35.0726 C247.6755,35.0726 250.0295,36.4886 250.0295,40.7476 C250.0295,42.9686 249.6325,62.4566 249.8145,64.2426 C250.0735,66.7926 251.7455,68.1226 256.6305,68.1226 C260.9115,68.1226 263.7035,66.6586 263.7035,64.2426 L263.7015,61.0136 L258.1995,61.0136 C258.4765,55.9116 258.7925,46.1586 258.5655,40.5706 L258.5775,40.6266 C260.6555,37.7246 265.6875,35.0726 269.8345,35.0726 C272.1745,35.0726 274.5295,36.4886 274.5295,40.7476 C274.5295,42.9686 274.1315,62.4566 274.3135,64.2426 C274.5725,66.7926 276.2445,68.1226 281.1295,68.1226 C285.4105,68.1226 288.2045,66.6586 288.2025,64.2426 L288.2025,61.0136 Z" id="Fill-17" fill="#3A7D9B"></path>
            <path d="M124.3021,59.2832 C122.2711,60.3182 116.0741,61.1332 113.2461,61.1332 C108.0691,61.1332 103.2041,59.5292 103.2041,47.6212 C103.2041,36.2482 108.0691,33.8492 113.2461,33.8492 C115.1291,33.8492 116.8211,34.0762 118.2141,34.4862 C118.2141,40.8882 119.6601,41.8142 122.0811,41.8162 L123.1161,41.8162 C125.6771,41.8142 126.9981,40.8222 126.9981,33.7072 L126.9951,33.7072 C126.9951,30.1702 123.2191,27.1482 114.0731,27.1482 C104.3791,27.1482 94.3751,31.3162 94.3751,47.6212 C94.3751,63.9242 103.5521,68.0922 113.2461,68.0922 C118.1731,68.0922 123.8661,66.6582 126.1531,65.1482 C128.1791,63.8102 126.1531,59.3262 124.3021,59.2832" id="Fill-19" fill="#3A7D9B"></path>
            <path d="M446.4808,62.1679 C441.3028,62.1679 435.1458,59.7889 435.1458,47.8789 C435.1458,36.5059 441.3028,33.3319 446.4808,33.3319 C451.6578,33.3319 457.8148,35.9079 457.8148,47.8789 C457.8148,60.0589 451.6578,62.1679 446.4808,62.1679 M466.6468,47.8789 C466.6468,30.1559 456.1748,26.6309 446.4808,26.6309 C436.7868,26.6309 426.3148,31.5739 426.3148,47.8789 C426.3148,64.1839 436.7868,69.1269 446.4808,69.1269 C456.1748,69.1269 466.6468,65.6039 466.6468,47.8789" id="Fill-21" fill="#85B77E"></path>
            <path d="M491.2094,62.1679 C486.0314,62.1679 479.8744,59.7889 479.8744,47.8789 C479.8744,36.5059 486.0314,33.3319 491.2094,33.3319 C496.3874,33.3319 502.5444,35.9079 502.5444,47.8789 C502.5444,60.0589 496.3874,62.1679 491.2094,62.1679 M511.3754,47.8789 C511.3754,30.1559 500.9024,26.6309 491.2094,26.6309 C481.5154,26.6309 471.0434,31.5739 471.0434,47.8789 C471.0434,64.1839 481.5154,69.1269 491.2094,69.1269 C500.9024,69.1269 511.3754,65.6039 511.3754,47.8789" id="Fill-23" fill="#85B77E"></path>
            <g id="Group-27" transform="translate(561.000000, 25.398400)">
                <mask id="mask-2" fill="white">
                    <use xlink:href="#path-1"></use>
                </mask>
                <g id="Clip-26"></g>
                <path d="M30.2904,31.1074 C30.2904,17.9534 9.1864,19.0954 9.1864,12.3324 C9.1864,8.9884 10.5854,7.4164 15.7624,7.4164 C17.6454,7.4164 19.0794,7.6424 20.4724,8.0524 C20.4724,14.4554 21.9184,15.3804 24.3404,15.3824 L25.3734,15.3824 C27.9364,15.3804 29.2554,14.3904 29.2554,7.2714 L29.2544,7.2714 C29.2544,3.7364 25.7354,0.7144 16.5914,0.7144 C6.8964,0.7144 0.6944,4.0454 0.6944,13.1524 C0.6944,25.4864 21.6644,24.1384 21.6644,31.2124 C21.6644,34.4724 20.3974,35.9944 15.2204,35.9944 C12.1504,35.9944 10.4464,35.6054 9.2184,34.7914 C9.2184,28.3904 7.7704,27.7674 5.3534,27.7674 L4.3164,27.7674 C1.7544,27.7674 0.4364,28.7594 0.4364,35.8774 C0.4364,39.4144 5.2464,42.6934 14.3934,42.6934 C24.0874,42.6934 30.2904,40.4334 30.2904,31.1074" id="Fill-25" fill="#85B77E" mask="url(#mask-2)"></path>
            </g>
            <g id="Group-30" transform="translate(381.000000, 26.398400)">
                <mask id="mask-4" fill="white">
                    <use xlink:href="#path-3"></use>
                </mask>
                <g id="Clip-29"></g>
                <path d="M19.7494,34.7344 C14.5724,34.7344 9.7084,33.1304 9.7084,21.2224 C9.7084,9.8494 14.5724,7.4514 19.7494,7.4514 C23.7564,7.4514 27.6154,9.7444 29.0864,13.1774 L28.9954,14.4594 C29.0064,18.6794 29.0264,26.1094 29.0424,32.1194 C26.0934,33.8924 22.0694,34.7344 19.7494,34.7344 L19.7494,34.7344 Z M43.1504,5.7854 C43.1504,3.3714 40.3584,1.3864 36.0774,1.3864 C31.9324,1.3864 30.1064,2.3394 29.6464,4.1914 C27.0114,2.1584 23.4254,0.7504 19.3494,0.7504 C9.6544,0.7504 0.8774,4.9184 0.8774,21.2224 C0.8774,37.5254 10.0564,41.6934 19.7494,41.6934 C22.9264,41.6934 26.3694,40.7834 29.0624,39.3794 C29.0654,40.7184 29.0674,41.5274 29.0674,41.5274 C29.0674,53.4354 23.9464,55.0394 18.7674,55.0394 C15.9384,55.0394 9.7434,54.2264 7.7144,53.1894 C5.8624,53.2324 3.8364,57.7184 5.8624,59.0564 C8.1474,60.5664 13.8434,62.0004 18.7674,62.0004 C28.4614,62.0004 37.8994,57.8324 37.8994,41.5274 C37.8994,41.5274 37.9044,15.3434 37.8284,8.7554 L43.1484,8.7554 L43.1504,5.7854 Z" id="Fill-28" fill="#85B77E" mask="url(#mask-4)"></path>
            </g>
            <path d="M533.9564,61.1328 C528.7784,61.1328 523.9144,59.5288 523.9144,47.6208 C523.9144,36.2478 528.7784,33.8498 533.9564,33.8498 C538.1884,33.8498 542.2604,36.4058 543.5194,40.1678 C543.5254,41.0078 543.5334,41.7948 543.5434,42.5118 C543.4994,45.6618 543.3924,51.7498 543.3374,56.6818 C540.6624,59.6428 537.7434,61.1328 533.9564,61.1328 L533.9564,61.1328 Z M557.2384,60.8688 L551.7334,60.8688 C551.9684,56.5648 552.2304,48.9468 552.1704,43.3168 C552.3874,37.5138 552.4294,26.4058 552.4454,20.1268 C552.4454,17.0798 552.4454,12.6118 551.9214,10.9358 C551.1544,8.4918 550.2474,7.0548 545.3634,7.0548 C541.0814,7.0548 538.2884,9.0388 538.2914,11.4528 L538.2914,14.4218 L543.6124,14.4218 C543.5774,17.4378 543.5244,23.9338 543.5074,30.3208 C540.9074,28.4298 537.4524,27.1488 533.5544,27.1488 C523.8624,27.1488 515.0824,31.3168 515.0824,47.6208 C515.0824,63.9238 524.2624,68.0918 533.9564,68.0918 C536.8824,68.0918 540.5314,66.8238 543.4094,64.5178 C543.8104,66.7928 545.5574,67.9788 550.1674,67.9788 C554.4484,67.9788 557.2404,66.5138 557.2404,64.0978 L557.2384,60.8688 Z" id="Fill-31" fill="#85B77E"></path>
        </g>
    </g>
</svg>